<svg width="22" height="22" viewBox="0 0 22 22" fill="none" xmlns="http://www.w3.org/2000/svg">
<path fill-rule="evenodd" clip-rule="evenodd" d="M10.6115 1C5.30323 1 1 5.20819 1 10.3993C1 15.5903 5.30323 19.7985 10.6115 19.7985C12.8819 19.7985 14.9684 19.0287 16.613 17.7415L19.7371 20.7887L19.8202 20.8586C20.1102 21.0685 20.5214 21.0446 20.7839 20.7873C21.0726 20.5043 21.072 20.0459 20.7825 19.7636L17.6952 16.7523C19.2649 15.0794 20.2231 12.8487 20.2231 10.3993C20.2231 5.20819 15.9199 1 10.6115 1ZM10.6115 2.44773C15.1022 2.44773 18.7426 6.00775 18.7426 10.3993C18.7426 14.7908 15.1022 18.3508 10.6115 18.3508C6.12084 18.3508 2.48042 14.7908 2.48042 10.3993C2.48042 6.00775 6.12084 2.44773 10.6115 2.44773Z" fill="black"/>
<path d="M16.613 17.7415L16.8574 17.491L16.6383 17.2773L16.3973 17.4659L16.613 17.7415ZM19.7371 20.7887L19.4927 21.0392L19.5018 21.0481L19.5116 21.0564L19.7371 20.7887ZM19.8202 20.8586L19.5948 21.1264L19.6046 21.1346L19.615 21.1422L19.8202 20.8586ZM20.7839 20.7873L20.5389 20.5374L20.5389 20.5374L20.7839 20.7873ZM20.7825 19.7636L21.0269 19.5131L21.0269 19.5131L20.7825 19.7636ZM17.6952 16.7523L17.44 16.5128L17.2051 16.7631L17.4508 17.0028L17.6952 16.7523ZM1.35 10.3993C1.35 5.40882 5.48912 1.35 10.6115 1.35V0.65C5.11734 0.65 0.65 5.00756 0.65 10.3993H1.35ZM10.6115 19.4485C5.48912 19.4485 1.35 15.3897 1.35 10.3993H0.65C0.65 15.791 5.11734 20.1485 10.6115 20.1485V19.4485ZM16.3973 17.4659C14.8126 18.7062 12.8016 19.4485 10.6115 19.4485V20.1485C12.9621 20.1485 15.1242 19.3513 16.8287 18.0171L16.3973 17.4659ZM19.9815 20.5381L16.8574 17.491L16.3686 17.9921L19.4927 21.0392L19.9815 20.5381ZM20.0456 20.5909L19.9625 20.5209L19.5116 21.0564L19.5948 21.1264L20.0456 20.5909ZM20.5389 20.5374C20.4006 20.673 20.1799 20.6869 20.0254 20.5751L19.615 21.1422C20.0406 21.4501 20.6423 21.4163 21.0289 21.0372L20.5389 20.5374ZM20.5382 20.0142C20.687 20.1594 20.6873 20.3918 20.5389 20.5374L21.0289 21.0372C21.4579 20.6167 21.4569 19.9325 21.0269 19.5131L20.5382 20.0142ZM17.4508 17.0028L20.5382 20.0142L21.0269 19.5131L17.9396 16.5017L17.4508 17.0028ZM19.8731 10.3993C19.8731 12.7553 18.952 14.9014 17.44 16.5128L17.9504 16.9918C19.5779 15.2573 20.5731 12.9422 20.5731 10.3993H19.8731ZM10.6115 1.35C15.734 1.35 19.8731 5.40882 19.8731 10.3993H20.5731C20.5731 5.00756 16.1057 0.65 10.6115 0.65V1.35ZM19.0926 10.3993C19.0926 5.80712 15.2881 2.09773 10.6115 2.09773V2.79773C14.9163 2.79773 18.3926 6.20838 18.3926 10.3993H19.0926ZM10.6115 18.7008C15.2881 18.7008 19.0926 14.9914 19.0926 10.3993H18.3926C18.3926 14.5901 14.9163 18.0008 10.6115 18.0008V18.7008ZM2.13042 10.3993C2.13042 14.9914 5.93495 18.7008 10.6115 18.7008V18.0008C6.30673 18.0008 2.83042 14.5901 2.83042 10.3993H2.13042ZM10.6115 2.09773C5.93495 2.09773 2.13042 5.80712 2.13042 10.3993H2.83042C2.83042 6.20838 6.30673 2.79773 10.6115 2.79773V2.09773Z" fill="black"/>
</svg>
