<svg width="16" height="16" viewBox="0 0 16 16" fill="none" xmlns="http://www.w3.org/2000/svg">
<path fill-rule="evenodd" clip-rule="evenodd" d="M7.7407 1.33301C4.20183 1.33301 1.33301 4.13847 1.33301 7.59918C1.33301 11.0599 4.20183 13.8654 7.7407 13.8654C9.25427 13.8654 10.6453 13.3522 11.7417 12.494L13.8244 14.5254L13.8798 14.5721C14.0732 14.712 14.3473 14.6961 14.5223 14.5246C14.7147 14.3358 14.7143 14.0303 14.5213 13.8421L12.4631 11.8345C13.5096 10.7193 14.1484 9.23217 14.1484 7.59918C14.1484 4.13847 11.2796 1.33301 7.7407 1.33301ZM7.74069 2.29817C10.7345 2.29817 13.1614 4.67151 13.1614 7.59918C13.1614 10.5268 10.7345 12.9002 7.74069 12.9002C4.7469 12.9002 2.31995 10.5268 2.31995 7.59918C2.31995 4.67151 4.7469 2.29817 7.74069 2.29817Z" fill="black"/>
</svg>
