<svg width="22" height="20" viewBox="0 0 22 20" fill="none" xmlns="http://www.w3.org/2000/svg">
<g clip-path="url(#clip0)">
<path d="M21.0005 4.44005L18.7605 0.260054C18.7165 0.181839 18.6526 0.116612 18.5754 0.0709618C18.4981 0.0253111 18.4102 0.000852149 18.3205 5.44698e-05H2.75047C2.66031 -0.00128983 2.57152 0.0222721 2.49389 0.068146C2.41626 0.11402 2.35279 0.180427 2.31047 0.260054L0.0804713 4.44005C-0.097308 5.1531 -0.0796894 5.90087 0.131475 6.60475C0.342639 7.30863 0.739548 7.94262 1.28047 8.44005V19.5001C1.28047 19.6327 1.33315 19.7598 1.42692 19.8536C1.52069 19.9474 1.64786 20.0001 1.78047 20.0001H8.19047C8.32308 20.0001 8.45026 19.9474 8.54402 19.8536C8.63779 19.7598 8.69047 19.6327 8.69047 19.5001V15.2901C8.69047 14.8021 8.88433 14.334 9.22939 13.989C9.57446 13.6439 10.0425 13.4501 10.5305 13.4501C11.0185 13.4501 11.4865 13.6439 11.8315 13.989C12.1766 14.334 12.3705 14.8021 12.3705 15.2901V19.5001C12.3705 19.6327 12.4232 19.7598 12.5169 19.8536C12.6107 19.9474 12.7379 20.0001 12.8705 20.0001H19.2805C19.4131 20.0001 19.5403 19.9474 19.634 19.8536C19.7278 19.7598 19.7805 19.6327 19.7805 19.5001V8.39005C20.3113 7.8957 20.7033 7.27085 20.9173 6.57778C21.1314 5.88472 21.1601 5.14765 21.0005 4.44005ZM18.7805 19.0001H13.3705V15.2901C13.3705 14.5368 13.0713 13.8145 12.5387 13.2819C12.0061 12.7493 11.2837 12.4501 10.5305 12.4501C9.77726 12.4501 9.05489 12.7493 8.52229 13.2819C7.98969 13.8145 7.69047 14.5368 7.69047 15.2901V19.0001H2.28047V9.00005H2.41047C3.10431 9.27268 3.86053 9.34598 4.59382 9.21169C5.3271 9.0774 6.00827 8.74087 6.56047 8.24005C6.80047 8.01777 7.01511 7.76959 7.20047 7.50005C7.56521 8.05082 8.06068 8.50268 8.64263 8.81528C9.22457 9.12788 9.87488 9.29149 10.5355 9.29149C11.1961 9.29149 11.8464 9.12788 12.4283 8.81528C13.0103 8.50268 13.5057 8.05082 13.8705 7.50005C14.3829 8.28639 15.1555 8.86751 16.0531 9.14172C16.9507 9.41594 17.9161 9.36579 18.7805 9.00005V19.0001ZM20.0005 5.82005C20.0005 7.72005 17.7405 8.77005 16.0905 8.12005C15.6037 7.95471 15.1776 7.64715 14.8674 7.23713C14.5573 6.82712 14.3772 6.33349 14.3505 5.82005C14.3273 5.70455 14.2648 5.60064 14.1736 5.52599C14.0825 5.45134 13.9683 5.41055 13.8505 5.41055C13.7327 5.41055 13.6185 5.45134 13.5273 5.52599C13.4362 5.60064 13.3737 5.70455 13.3505 5.82005C13.1405 9.23005 7.72047 9.00005 7.66047 5.63005C7.6146 5.51982 7.5322 5.42874 7.4271 5.37209C7.322 5.31544 7.20061 5.29669 7.08332 5.31897C6.96602 5.34126 6.85997 5.40323 6.78297 5.49447C6.70597 5.58572 6.66272 5.70068 6.66047 5.82005C6.63746 6.32334 6.46816 6.80898 6.17332 7.2175C5.87847 7.62602 5.47088 7.93968 5.00047 8.12005C4.50664 8.34387 3.9598 8.42426 3.42245 8.35204C2.88509 8.27981 2.3789 8.05787 1.96169 7.7116C1.54449 7.36532 1.23311 6.90866 1.06314 6.39381C0.893161 5.87895 0.871446 5.32667 1.00047 4.80005L3.00047 1.00005H18.0005L20.0005 4.79005V5.82005Z" fill="black"/>
</g>
<defs>
<clipPath id="clip0">
<rect width="21.06" height="20" fill="white"/>
</clipPath>
</defs>
</svg>
