<svg width="22" height="20" viewBox="0 0 25 23" fill="none" xmlns="http://www.w3.org/2000/svg">
<!-- <g clip-path="url(#clip0)"> -->
<path d="M23.0005 7.44005L20.7605 3.26005C20.7165 3.18184 20.6526 3.11661 20.5754 3.07096C20.4981 3.02531 20.4102 3.00085 20.3205 3.00005H4.75047C4.66031 2.99871 4.57152 3.02227 4.49389 3.06815C4.41626 3.11402 4.35279 3.18043 4.31047 3.26005L2.08047 7.44005C1.90269 8.1531 1.92031 8.90087 2.13147 9.60475C2.34264 10.3086 2.73955 10.9426 3.28047 11.4401V22.5001C3.28047 22.6327 3.33315 22.7598 3.42692 22.8536C3.52069 22.9474 3.64786 23.0001 3.78047 23.0001H10.1905C10.3231 23.0001 10.4503 22.9474 10.544 22.8536C10.6378 22.7598 10.6905 22.6327 10.6905 22.5001V18.2901C10.6905 17.8021 10.8843 17.334 11.2294 16.989C11.5745 16.6439 12.0425 16.4501 12.5305 16.4501C13.0185 16.4501 13.4865 16.6439 13.8315 16.989C14.1766 17.334 14.3705 17.8021 14.3705 18.2901V22.5001C14.3705 22.6327 14.4232 22.7598 14.5169 22.8536C14.6107 22.9474 14.7379 23.0001 14.8705 23.0001H21.2805C21.4131 23.0001 21.5403 22.9474 21.634 22.8536C21.7278 22.7598 21.7805 22.6327 21.7805 22.5001V11.3901C22.3113 10.8957 22.7033 10.2708 22.9173 9.57778C23.1314 8.88472 23.1601 8.14765 23.0005 7.44005ZM20.7805 22.0001H15.3705V18.2901C15.3705 17.5368 15.0713 16.8145 14.5387 16.2819C14.0061 15.7493 13.2837 15.4501 12.5305 15.4501C11.7773 15.4501 11.0549 15.7493 10.5223 16.2819C9.98969 16.8145 9.69047 17.5368 9.69047 18.2901V22.0001H4.28047V12.0001H4.41047C5.10431 12.2727 5.86053 12.346 6.59382 12.2117C7.3271 12.0774 8.00827 11.7409 8.56047 11.2401C8.80047 11.0178 9.01511 10.7696 9.20047 10.5001C9.56521 11.0508 10.0607 11.5027 10.6426 11.8153C11.2246 12.1279 11.8749 12.2915 12.5355 12.2915C13.1961 12.2915 13.8464 12.1279 14.4283 11.8153C15.0103 11.5027 15.5057 11.0508 15.8705 10.5001C16.3829 11.2864 17.1555 11.8675 18.0531 12.1417C18.9507 12.4159 19.9161 12.3658 20.7805 12.0001V22.0001ZM22.0005 8.82005C22.0005 10.7201 19.7405 11.7701 18.0905 11.1201C17.6037 10.9547 17.1776 10.6471 16.8674 10.2371C16.5573 9.82712 16.3772 9.33349 16.3505 8.82005C16.3273 8.70455 16.2648 8.60064 16.1736 8.52599C16.0825 8.45134 15.9683 8.41055 15.8505 8.41055C15.7327 8.41055 15.6185 8.45134 15.5273 8.52599C15.4362 8.60064 15.3737 8.70455 15.3505 8.82005C15.1405 12.2301 9.72047 12.0001 9.66047 8.63005C9.6146 8.51982 9.5322 8.42874 9.4271 8.37209C9.322 8.31544 9.20061 8.29669 9.08332 8.31897C8.96602 8.34126 8.85997 8.40323 8.78297 8.49447C8.70597 8.58572 8.66272 8.70068 8.66047 8.82005C8.63746 9.32334 8.46816 9.80898 8.17332 10.2175C7.87847 10.626 7.47088 10.9397 7.00047 11.1201C6.50664 11.3439 5.9598 11.4243 5.42245 11.352C4.88509 11.2798 4.3789 11.0579 3.96169 10.7116C3.54449 10.3653 3.23311 9.90866 3.06314 9.39381C2.89316 8.87895 2.87145 8.32667 3.00047 7.80005L5.00047 4.00005H20.0005L22.0005 7.79005V8.82005Z" fill="black"/>
<!-- </g> -->
<defs>
<!-- <clipPath id="clip0"> -->
<!-- <rect width="21.06" height="20" fill="white" transform="translate(2 3)"/> -->
<!-- </clipPath> -->
</defs>
</svg>
