<svg width="22" height="20" viewBox="0 0 25 23 " fill="none" xmlns="http://www.w3.org/2000/svg">
<path d="M22.9998 6.9L20.7998 2.7C20.5998 2.6 20.4998 2.5 20.2998 2.5H4.69979C4.49979 2.5 4.39979 2.6 4.29979 2.8L2.09979 6.9C1.89979 8.3 2.09979 9.9 3.29979 10.9V22C3.29979 22.3 3.49979 22.5 3.79979 22.5H10.1998C10.4998 22.5 10.6998 22.3 10.6998 22V17.8C10.6998 15.4 14.3998 15.4 14.3998 17.8V22C14.3998 22.3 14.5998 22.5 14.8998 22.5H21.2998C21.5998 22.5 21.7998 22.3 21.7998 22V10.9C22.8998 10 23.1998 8.3 22.9998 6.9Z" fill="black"/>
<path d="M23.0998 6.8999L20.8998 2.6999C20.6998 2.4999 20.4998 2.3999 20.2998 2.3999H4.6998C4.4998 2.3999 4.2998 2.4999 4.0998 2.6999L1.8998 6.8999C1.8998 6.9999 1.7998 7.0999 1.7998 7.1999V8.1999C1.7998 9.1999 2.1998 10.1999 2.9998 10.8999C4.4998 12.2999 7.0998 12.2999 8.5998 10.8999C8.7998 10.6999 8.9998 10.4999 9.0998 10.2999C9.2998 10.4999 9.4998 10.6999 9.6998 10.8999C11.1998 12.2999 13.7998 12.2999 15.2998 10.8999C15.4998 10.6999 15.6998 10.4999 15.7998 10.2999C15.9998 10.4999 16.0998 10.6999 16.2998 10.8999C17.0998 11.5999 17.9998 11.9999 19.0998 11.9999C20.1998 11.9999 21.1998 11.5999 21.8998 10.8999C22.5998 10.1999 22.9998 9.2999 23.0998 8.2999V7.0999C23.1998 7.0999 23.0998 6.9999 23.0998 6.8999ZM21.8998 7.2999V8.2999C21.8998 8.8999 21.5998 9.4999 21.0998 9.8999C20.0998 10.7999 18.2998 10.7999 17.2998 9.8999C16.7998 9.4999 16.4998 8.8999 16.4998 8.2999C16.4998 7.9999 16.1998 7.6999 15.7998 7.6999C15.4998 7.6999 15.1998 7.9999 15.1998 8.2999C15.1998 8.8999 14.8998 9.4999 14.3998 9.8999C13.3998 10.7999 11.5998 10.7999 10.5998 9.8999C10.0998 9.4999 9.8998 8.8999 9.7998 8.2999C9.7998 7.9999 9.4998 7.6999 9.0998 7.6999C8.7998 7.6999 8.4998 7.9999 8.4998 8.2999C8.4998 8.8999 8.1998 9.4999 7.6998 9.9999C6.6998 10.8999 4.8998 10.8999 3.8998 9.9999C3.3998 9.4999 3.0998 8.8999 3.0998 8.1999V7.2999L5.0998 3.5999H19.8998L21.8998 7.2999Z" fill="white"/>
</svg>
