<svg width="19" height="21" viewBox="0 0 19 21" fill="none" xmlns="http://www.w3.org/2000/svg">
<path d="M15.25 6.66699C16.8378 6.66699 18.125 5.37981 18.125 3.79199C18.125 2.20417 16.8378 0.916992 15.25 0.916992C13.6622 0.916992 12.375 2.20417 12.375 3.79199C12.375 5.37981 13.6622 6.66699 15.25 6.66699Z" stroke="black" stroke-width="1.5" stroke-linecap="round" stroke-linejoin="round"/>
<path d="M3.75 13.375C5.33782 13.375 6.625 12.0878 6.625 10.5C6.625 8.91218 5.33782 7.625 3.75 7.625C2.16218 7.625 0.875 8.91218 0.875 10.5C0.875 12.0878 2.16218 13.375 3.75 13.375Z" stroke="black" stroke-width="1.5" stroke-linecap="round" stroke-linejoin="round"/>
<path d="M15.25 20.083C16.8378 20.083 18.125 18.7958 18.125 17.208C18.125 15.6202 16.8378 14.333 15.25 14.333C13.6622 14.333 12.375 15.6202 12.375 17.208C12.375 18.7958 13.6622 20.083 15.25 20.083Z" stroke="black" stroke-width="1.5" stroke-linecap="round" stroke-linejoin="round"/>
<path d="M6.23206 11.9473L12.7775 15.7614" stroke="black" stroke-width="1.5" stroke-linecap="round" stroke-linejoin="round"/>
<path d="M12.7679 5.23926L6.23206 9.05342" stroke="black" stroke-width="1.5" stroke-linecap="round" stroke-linejoin="round"/>
</svg>
