<?xml version="1.0" encoding="utf-8"?>
<!-- Generator: Adobe Illustrator 25.2.3, SVG Export Plug-In . SVG Version: 6.00 Build 0)  -->
<svg version="1.1" id="레이어_1" xmlns="http://www.w3.org/2000/svg" xmlns:xlink="http://www.w3.org/1999/xlink" x="0px"
	 y="0px" viewBox="0 0 24 24" style="enable-background:new 0 0 24 24;" xml:space="preserve">
<style type="text/css">
	.st0{fill:#FFFFFF;}
</style>
<path d="M22.5,6.4c0,0-2.2-4.2-2.2-4.2C20.1,2.1,20,2,19.8,2H4.2C4,2,3.9,2.1,3.8,2.3L1.6,6.4c-0.2,1.4,0,3,1.2,4v11.1
	C2.8,21.8,3,22,3.3,22h6.4c0.3,0,0.5-0.2,0.5-0.5v-4.2c0-2.4,3.7-2.4,3.7,0c0,0,0,4.2,0,4.2c0,0.3,0.2,0.5,0.5,0.5h6.4
	c0.3,0,0.5-0.2,0.5-0.5V10.4C22.4,9.5,22.7,7.8,22.5,6.4z"/>
<path class="st0" d="M22.6,6.4l-2.2-4.2C20.2,2,20,1.9,19.8,1.9H4.2C4,1.9,3.8,2,3.6,2.2L1.4,6.4c0,0.1-0.1,0.2-0.1,0.3v1
	c0,1,0.4,2,1.2,2.7c1.5,1.4,4.1,1.4,5.6,0c0.2-0.2,0.4-0.4,0.5-0.6C8.8,10,9,10.2,9.2,10.4c1.5,1.4,4.1,1.4,5.6,0
	c0.2-0.2,0.4-0.4,0.5-0.6c0.2,0.2,0.3,0.4,0.5,0.6c0.8,0.7,1.7,1.1,2.8,1.1c1.1,0,2.1-0.4,2.8-1.1c0.7-0.7,1.1-1.6,1.2-2.6l0-1.2
	C22.7,6.6,22.6,6.5,22.6,6.4z M21.4,6.8l0,1c0,0.6-0.3,1.2-0.8,1.6c-1,0.9-2.8,0.9-3.8,0C16.3,9,16,8.4,16,7.8
	c0-0.3-0.3-0.6-0.7-0.6c-0.3,0-0.6,0.3-0.6,0.6c0,0.6-0.3,1.2-0.8,1.6c-1,0.9-2.8,0.9-3.8,0C9.6,9,9.4,8.4,9.3,7.8
	c0-0.3-0.3-0.6-0.7-0.6C8.3,7.2,8,7.5,8,7.8C8,8.4,7.7,9,7.2,9.5c-1,0.9-2.8,0.9-3.8,0C2.9,9,2.6,8.4,2.6,7.7V6.8l2-3.7h14.8
	L21.4,6.8z"/>
</svg>
