<svg width="10" height="10" viewBox="0 0 10 10" fill="none" xmlns="http://www.w3.org/2000/svg">
<path d="M4.81752 0.406709C4.88819 0.249203 5.11181 0.249203 5.18248 0.406709L6.42524 3.17663C6.45284 3.23815 6.50957 3.28161 6.57615 3.29226L9.38446 3.74113C9.54256 3.7664 9.60835 3.95795 9.49915 4.07504L7.44397 6.27867C7.4021 6.32357 7.38317 6.38523 7.39262 6.44589L7.87447 9.53619C7.90036 9.70228 7.72225 9.82429 7.57673 9.74013L5.10012 8.3079C5.03818 8.27208 4.96182 8.27208 4.89988 8.3079L2.42327 9.74013C2.27775 9.82429 2.09964 9.70228 2.12553 9.53619L2.60738 6.44589C2.61683 6.38523 2.5979 6.32357 2.55603 6.27867L0.500846 4.07504C0.391646 3.95795 0.457441 3.7664 0.615541 3.74113L3.42385 3.29226C3.49043 3.28161 3.54716 3.23815 3.57476 3.17663L4.81752 0.406709Z" fill="#6129FF"/>
</svg>
